<svg xmlns="http://www.w3.org/2000/svg" version="1.1" xmlns:xlink="http://www.w3.org/1999/xlink" width="2000" height="815" viewBox="0 0 2000 815"><svg xml:space="preserve" width="2000" height="815" data-version="2" data-id="lg_nkKzHwTo3Vi52N8qxY" viewBox="0 0 815 815" x="0" y="0"><rect width="100%" height="100%" fill="transparent"></rect><circle r="50" fill="#fff" transform="translate(407.5 407.5)scale(7.9879)"></circle><circle r="50" transform="translate(407.5 406.9)scale(6.9333)"></circle><circle r="50" fill="#fff" transform="translate(410.23 406.9)scale(6.2485)"></circle><path fill="#af00b3" d="M468.033 67.14v36.283a34.13 34.13 0 0 1-34.123 34.137H319.806c-98.656 0-178.912 80.256-178.912 178.912v199.44c37.702 0 68.267-30.565 68.267-68.261V316.472c0-61.007 49.63-110.645 110.645-110.645h352.618zm136.54 292.276v131.172c0 61.014-49.63 110.652-110.638 110.652v-.014H141.311L345.695 739.92v-36.29a34.13 34.13 0 0 1 34.13-34.13h114.103v.007c98.643 0 178.906-80.263 178.906-178.92V291.15c-37.696 0-68.26 30.571-68.26 68.267"></path><circle r="50" transform="matrix(2.6 0 0 2.4606 407.5 406.9)"></circle><path fill="#b10dc9" d="m250.17 271.758 96.976 41.81a121.73 102.865-48.998 0 0 111.126-17.208l98.569-72.087-57.668 107.642a121.73 102.865-48.998 0 0-1.573 112.438l54.9 90.211-96.975-41.809a121.73 102.865-48.998 0 0-111.127 17.207l-98.568 72.056 57.668-107.641a121.73 102.865-48.998 0 0 1.572-112.439z"></path></svg></svg>